HIERARCHY
ROOT Hips
{
	OFFSET 0.000000 0.000000 0.000000 
	CHANNELS 6 Xposition Yposition Zposition Zrotation Yrotation Xrotation
	JOINT LeftUpLeg
	{
		OFFSET 1.363060 -1.794630 0.839290 
		CHANNELS 3 Zrotation Yrotation Xrotation
		JOINT LeftLeg
		{
			OFFSET 2.448110 -6.726130 0.000000 
			CHANNELS 3 Zrotation Yrotation Xrotation
			JOINT LeftFoot
			{
				OFFSET 2.562200 -7.039590 0.000000 
				CHANNELS 3 Zrotation Yrotation Xrotation
				JOINT LeftToeBase
				{
					OFFSET 0.157640 -0.433110 2.322550 
					CHANNELS 3 Zrotation Yrotation Xrotation
					End Site
					{
						OFFSET 0.000000 0.000000 0.000000 
					}
				}
			}
		}
	}
	JOINT RightUpLeg
	{
		OFFSET -1.305520 -1.794630 0.839290 
		CHANNELS 3 Zrotation Yrotation Xrotation
		JOINT RightLeg
		{
			OFFSET -2.542530 -6.985550 0.000000 
			CHANNELS 3 Zrotation Yrotation Xrotation
			JOINT RightFoot
			{
				OFFSET -2.568260 -7.056230 0.000000 
				CHANNELS 3 Zrotation Yrotation Xrotation
				JOINT RightToeBase
				{
					OFFSET -0.164730 -0.452590 2.363150 
					CHANNELS 3 Zrotation Yrotation Xrotation
					End Site
					{
						OFFSET 0.000000 0.000000 0.000000 
					}
				}
			}
		}
	}
	JOINT Spine
	{
		OFFSET 0.028270 2.035590 -0.193380 
		CHANNELS 3 Zrotation Yrotation Xrotation
		JOINT Spine1
		{
			OFFSET 0.056720 2.048850 -0.042750 
			CHANNELS 3 Zrotation Yrotation Xrotation
			JOINT Neck1
			{
				OFFSET -0.054170 1.746240 0.172020 
				CHANNELS 3 Zrotation Yrotation Xrotation
				JOINT Head
				{
					OFFSET 0.104070 1.761360 -0.123970 
					CHANNELS 3 Zrotation Yrotation Xrotation
					End Site
					{
						OFFSET 0.000000 0.000000 0.000000 
					}
				}
			}
			JOINT LeftArm
			{
				OFFSET 3.362410 1.200890 -0.311210 
				CHANNELS 3 Zrotation Yrotation Xrotation
				JOINT LeftForeArm
				{
					OFFSET 4.983000 -0.000000 -0.000000 
					CHANNELS 3 Zrotation Yrotation Xrotation
					JOINT LeftHand
					{
						OFFSET 3.483560 -0.000000 -0.000000 
						CHANNELS 3 Zrotation Yrotation Xrotation
						JOINT LeftHandIndex1
						{
							OFFSET 0.715260 -0.000000 -0.000000 
							CHANNELS 3 Zrotation Yrotation Xrotation
							End Site
							{
								OFFSET 0.000000 0.000000 0.000000 
							}
						}
					}
				}
			}
			JOINT RightArm
			{
				OFFSET -3.136600 1.374050 -0.404650 
				CHANNELS 3 Zrotation Yrotation Xrotation
				JOINT RightForeArm
				{
					OFFSET -5.241900 -0.000000 -0.000000 
					CHANNELS 3 Zrotation Yrotation Xrotation
					JOINT RightHand
					{
						OFFSET -3.444170 -0.000000 -0.000000 
						CHANNELS 3 Zrotation Yrotation Xrotation
						JOINT RightHandIndex1
						{
							OFFSET -0.622530 -0.000000 -0.000000 
							CHANNELS 3 Zrotation Yrotation Xrotation
							End Site
							{
								OFFSET 0.000000 0.000000 0.000000 
							}
						}
					}
				}
			}
		}
	}
}
MOTION
Frames: 18
Frame Time: 0.041667
14.365175 17.723622 1.541420 129.888871 -88.436984 -131.578084 -3.865159 0.650498 -10.972175 2.701809 13.793970 35.168565 -7.909878 19.927932 -2.610537 1.566200 -7.897200 -22.402200 5.804213 5.905326 -7.185754 -2.892264 -14.544067 38.252059 5.995647 -18.377458 -10.705739 -0.039800 1.287700 -3.540600 -0.504359 1.271633 -0.329522 -3.345898 0.686733 8.649494 5.219620 -2.026258 11.489678 2.014000 -0.770300 3.482500 -65.380198 -1.648636 35.505705 36.034065 -43.416053 -18.689056 0.436523 1.020023 13.693312 -7.125000 0.000000 0.000000 65.835320 -1.540343 33.068620 -32.014114 41.679437 -15.202898 2.188807 -0.155842 12.104986 7.125000 0.000000 0.000000 
14.359636 17.720188 1.552941 129.042343 -88.332081 -130.798604 -4.003715 0.592513 -10.839036 2.678855 13.815160 35.176211 -7.999082 20.071288 -2.987501 1.694100 -8.197600 -23.315900 5.714848 5.872867 -7.101922 -2.907289 -14.545019 38.279732 6.004108 -18.394923 -10.664395 -0.055600 1.521700 -4.185500 -0.279414 0.819102 -0.215024 -2.614197 0.419204 8.950747 5.124067 -1.450609 11.607015 2.161300 -0.494200 3.754500 -66.435635 -2.043025 34.265514 36.089515 -43.349576 -18.660708 0.470187 0.999473 12.376783 -7.125000 0.000000 0.000000 64.909454 -0.698952 33.888282 -31.540756 41.290966 -14.837435 2.207816 -0.148534 12.226574 7.125000 0.000000 0.000000 
14.350774 17.718415 1.568560 123.896499 -88.249328 -125.665046 -4.258169 0.548021 -10.795405 2.663432 13.803975 35.166068 -8.022185 20.102371 -3.110089 1.693700 -8.196500 -23.312600 5.422241 5.658877 -7.194085 -2.931097 -14.547797 38.290851 6.013555 -18.398569 -10.481164 -0.072600 1.737900 -4.782000 -0.723930 1.443640 -0.416371 -3.923500 0.787978 8.421891 5.090371 -1.980337 11.216772 1.931600 -0.753800 3.261600 -65.189517 -1.140470 35.541340 36.318218 -43.520353 -18.771628 0.496410 0.925726 11.000552 -7.125000 0.000000 0.000000 66.742515 -1.877426 32.619806 -31.484434 41.367598 -14.842975 2.175872 -0.200902 12.618863 7.125000 0.000000 0.000000 
14.341691 17.718969 1.575982 123.975798 -88.139252 -125.706116 -4.344370 0.682554 -10.845830 2.657932 13.812409 35.156408 -8.069864 20.193560 -3.167954 1.701100 -8.213500 -23.364400 5.362015 5.849605 -7.104163 -2.927565 -14.544025 38.300036 6.010249 -18.395048 -10.628838 -0.066400 1.662200 -4.573100 -0.547341 1.137492 -0.339576 -3.307074 0.600646 8.664677 4.920953 -1.619615 11.115836 1.973700 -0.582000 3.357900 -66.026181 -1.458949 34.426554 36.432597 -43.519385 -18.833510 0.537026 0.901513 10.161524 -7.125000 0.000000 0.000000 65.985085 -1.449422 33.348836 -31.346811 41.241791 -14.728335 2.195744 -0.182521 12.338811 7.125000 0.000000 0.000000 
14.334823 17.718748 1.585176 123.298869 -88.091837 -125.030462 -4.426625 0.727921 -10.842713 2.652314 13.814685 35.155069 -8.093528 20.233510 -3.247179 1.714900 -8.245200 -23.461300 5.300005 5.926869 -7.047606 -2.927850 -14.544353 38.301659 6.038382 -18.464834 -10.689487 -0.072700 1.738900 -4.784700 -0.574902 1.148420 -0.354550 -3.357750 0.604894 8.635500 4.810266 -1.535708 10.958591 1.930200 -0.543300 3.284600 -66.139577 -1.382645 34.166534 36.566376 -43.564154 -18.896255 0.570096 0.857232 9.195330 -7.125000 0.000000 0.000000 66.127391 -1.505777 33.353596 -31.189311 41.145442 -14.621798 2.196929 -0.192560 12.342112 7.125000 0.000000 0.000000 
14.329173 17.718858 1.593374 122.818421 -88.082177 -124.547700 -4.467258 0.768039 -10.855162 2.653676 13.818908 35.168033 -8.100673 20.245171 -3.280588 1.718100 -8.252400 -23.483300 5.284945 6.039461 -6.976406 -2.921299 -14.543391 38.288823 6.088782 -18.592265 -10.783283 -0.079100 1.814300 -4.992900 -0.607473 1.181789 -0.375117 -3.441692 0.622983 8.584653 4.655621 -1.494890 10.770766 1.851400 -0.526500 3.178300 -66.208924 -1.278606 33.982731 36.678980 -43.607791 -18.954062 0.598430 0.817644 8.459385 -7.125000 0.000000 0.000000 66.316980 -1.602702 33.302213 -31.059128 41.070337 -14.537076 2.197571 -0.201897 12.334004 7.125000 0.000000 0.000000 
14.324742 17.718969 1.600685 122.296093 -88.105095 -124.027107 -4.472989 0.803393 -10.875181 2.659900 13.824848 35.189238 -8.094395 20.235124 -3.268687 1.720600 -8.258100 -23.500900 5.311753 6.179849 -6.888011 -2.910358 -14.542818 38.271123 6.150781 -18.752029 -10.912989 -0.083900 1.868800 -5.143300 -0.619183 1.187804 -0.384944 -3.475048 0.626064 8.560316 4.488636 -1.438768 10.612302 1.772700 -0.502200 3.097000 -66.329746 -1.198674 33.781769 36.762253 -43.640780 -18.999425 0.619080 0.788492 7.990667 -7.125000 0.000000 0.000000 66.443608 -1.649585 33.273714 -30.938762 40.996099 -14.458390 2.199118 -0.208714 12.331966 7.125000 0.000000 0.000000 
14.321419 17.718415 1.607663 121.582672 -88.153785 -123.321217 -4.454862 0.848626 -10.905744 2.670841 13.831282 35.217554 -8.067780 20.191143 -3.200597 1.726500 -8.271400 -23.541600 5.362869 6.321873 -6.792843 -2.896758 -14.542479 38.250819 6.209224 -18.905406 -11.059306 -0.084900 1.879300 -5.172200 -0.629679 1.191484 -0.392058 -3.521553 0.629339 8.538451 4.267954 -1.409682 10.429179 1.660800 -0.492200 2.992400 -66.439960 -1.097349 33.631686 36.828838 -43.673413 -19.040070 0.631012 0.768747 7.744261 -7.125000 0.000000 0.000000 66.586385 -1.709512 33.212626 -30.839429 40.938985 -14.400207 2.204503 -0.212159 12.362734 7.125000 0.000000 0.000000 
14.318428 17.717418 1.614310 120.634138 -88.211340 -122.380274 -4.426717 0.925203 -10.953581 2.685775 13.838714 35.252057 -8.024472 20.119868 -3.084303 1.741600 -8.305600 -23.646300 5.418146 6.443500 -6.701347 -2.882611 -14.541322 38.231156 6.248503 -19.012338 -11.203579 -0.080600 1.831200 -5.039500 -0.628257 1.170752 -0.387456 -3.535942 0.619677 8.554233 4.081629 -1.370963 10.293960 1.577500 -0.477100 2.928100 -66.583101 -1.026682 33.465602 36.877741 -43.698058 -19.072725 0.635752 0.758468 7.661325 -7.125000 0.000000 0.000000 66.681249 -1.738836 33.169035 -30.763650 40.904295 -14.375168 2.227347 -0.201468 12.394182 7.125000 0.000000 0.000000 
14.315327 17.716089 1.620513 119.575667 -88.263213 -121.332295 -4.398665 1.044001 -11.016681 2.703721 13.847275 35.291220 -7.971120 20.033042 -2.937074 1.766500 -8.361700 -23.818100 5.465813 6.540498 -6.615089 -2.869198 -14.539431 38.214633 6.262290 -19.056386 -11.338013 -0.071700 1.727700 -4.753600 -0.615177 1.130535 -0.373805 -3.511131 0.598798 8.601079 3.948805 -1.310253 10.211509 1.534300 -0.450500 2.907800 -66.761446 -0.993668 33.280902 36.899387 -43.707486 -19.088254 0.635453 0.756147 7.694796 -7.125000 0.000000 0.000000 66.722669 -1.762297 33.157548 -30.734088 40.900171 -14.380909 2.249864 -0.188928 12.420962 7.125000 0.000000 0.000000 
14.311782 17.714649 1.626163 118.589827 -88.303470 -120.357858 -4.375976 1.197528 -11.089648 2.722840 13.855900 35.332677 -7.910532 19.933695 -2.780228 1.798800 -8.433800 -24.039600 5.500812 6.613061 -6.539057 -2.857644 -14.537176 38.201424 6.259192 -19.057865 -11.452306 -0.061900 1.605300 -4.416000 -0.605223 1.099081 -0.356804 -3.489995 0.582309 8.659202 3.854514 -1.238484 10.162293 1.513400 -0.417400 2.916300 -66.914442 -0.998497 33.119559 36.911659 -43.708046 -19.094192 0.635621 0.753775 7.687961 -7.125000 0.000000 0.000000 66.767060 -1.801946 33.134468 -30.752176 40.928059 -14.416370 2.268250 -0.178370 12.442627 7.125000 0.000000 0.000000 
14.307905 17.713431 1.631258 117.631840 -88.334709 -119.411772 -4.361391 1.364501 -11.160909 2.741167 13.863607 35.372981 -7.850206 19.833943 -2.632537 1.833300 -8.509800 -24.273400 5.520321 6.649566 -6.479112 -2.849657 -14.535408 38.192495 6.249583 -19.040808 -11.531507 -0.054900 1.511500 -4.157400 -0.609630 1.093449 -0.346796 -3.511859 0.580402 8.693023 3.760971 -1.179976 10.096590 1.487200 -0.390800 2.909400 -67.001469 -0.996307 33.030959 36.905553 -43.698719 -19.083983 0.635089 0.750508 7.650487 -7.125000 0.000000 0.000000 66.862484 -1.893654 33.074686 -30.806920 40.978865 -14.466213 2.273650 -0.177759 12.474300 7.125000 0.000000 0.000000 
14.303806 17.712544 1.636022 116.646751 -88.356236 -118.440025 -4.359344 1.521794 -11.220459 2.756742 13.869747 35.407216 -7.798765 19.748966 -2.509224 1.863400 -8.575500 -24.476200 5.518498 6.637073 -6.444320 -2.846950 -14.534574 38.189003 6.239262 -19.018034 -11.558427 -0.052300 1.475300 -4.057800 -0.627839 1.111141 -0.341940 -3.571353 0.591610 8.709253 3.694002 -1.123943 10.053640 1.469700 -0.364200 2.916800 -67.025100 -0.993560 32.998548 36.873720 -43.674900 -19.054054 0.634291 0.747034 7.619340 -7.125000 0.000000 0.000000 67.000536 -2.003015 32.982232 -30.881249 41.033657 -14.510180 2.259877 -0.192497 12.513820 7.125000 0.000000 0.000000 
14.299708 17.711990 1.640896 115.662265 -88.362140 -117.468030 -4.379381 1.647905 -11.263939 2.767313 13.873410 35.431738 -7.765583 19.694134 -2.431144 1.889300 -8.631600 -24.649700 5.484057 6.571856 -6.445861 -2.851020 -14.534432 38.191040 6.232088 -18.996945 -11.518460 -0.054300 1.504200 -4.137300 -0.670425 1.174632 -0.354785 -3.701586 0.627986 8.666859 3.588624 -1.116020 9.964784 1.417200 -0.362000 2.875800 -66.963526 -0.916981 33.062454 36.824159 -43.650553 -19.015198 0.635013 0.743019 7.627218 -7.125000 0.000000 0.000000 67.226546 -2.183252 32.822209 -30.967268 41.093042 -14.548166 2.229590 -0.218740 12.552105 7.125000 0.000000 0.000000 
14.296052 17.711880 1.646323 114.610152 -88.341895 -116.422070 -4.432062 1.734075 -11.291128 2.771379 13.875957 35.445548 -7.749912 19.668406 -2.399794 1.907000 -8.669500 -24.766900 5.405859 6.450247 -6.488319 -2.862519 -14.533611 38.198377 6.223371 -18.965253 -11.404922 -0.060000 1.580500 -4.347500 -0.710059 1.229082 -0.374035 -3.814824 0.658176 8.602613 3.482126 -1.098960 9.875620 1.368300 -0.356000 2.829600 -66.927201 -0.797611 33.092987 36.768088 -43.628766 -18.979326 0.637737 0.741030 7.693482 -7.125000 0.000000 0.000000 67.407665 -2.358372 32.706278 -31.047457 41.143451 -14.573362 2.194127 -0.245393 12.576978 7.125000 0.000000 0.000000 
14.293172 17.712101 1.652638 113.557591 -88.302310 -115.373886 -4.509892 1.789580 -11.306426 2.770513 13.877295 35.451545 -7.737064 19.645813 -2.393933 1.910200 -8.676500 -24.788600 5.291873 6.278499 -6.565196 -2.879577 -14.531570 38.209145 6.203248 -18.900532 -11.230086 -0.066400 1.662700 -4.574300 -0.747934 1.269979 -0.398382 -3.923713 0.680497 8.513099 3.314535 -1.099121 9.722303 1.285900 -0.360200 2.733800 -66.904733 -0.628728 33.090148 36.719762 -43.617898 -18.957626 0.641631 0.740383 7.792251 -7.125000 0.000000 0.000000 67.553692 -2.530213 32.632766 -31.117228 41.187839 -14.592204 2.161915 -0.266807 12.609315 7.125000 0.000000 0.000000 
14.291289 17.712877 1.659506 112.548627 -88.257583 -114.369188 -4.596085 1.824943 -11.313842 2.767057 13.878657 35.455186 -7.719770 19.613903 -2.398201 1.899600 -8.653800 -24.718300 5.164179 6.070995 -6.660284 -2.898792 -14.528119 38.220507 6.168716 -18.798189 -11.020263 -0.071400 1.724400 -4.744700 -0.775649 1.279320 -0.415249 -4.004656 0.686055 8.440551 3.185302 -1.072984 9.600067 1.230200 -0.350700 2.667500 -66.911868 -0.475180 33.018022 36.673769 -43.607843 -18.944571 0.646245 0.742189 7.902946 -7.125000 0.000000 0.000000 67.634336 -2.637813 32.614225 -31.168971 41.226736 -14.618487 2.153068 -0.270382 12.622234 7.125000 0.000000 0.000000 
14.290624 17.713984 1.666706 111.413509 -88.218880 -113.240462 -4.676129 1.846175 -11.317493 2.763914 13.882050 35.461404 -7.700121 19.578595 -2.398536 1.878200 -8.607600 -24.575400 5.043003 5.847054 -6.754171 -2.917251 -14.523289 38.229467 6.124718 -18.673750 -10.808718 -0.074300 1.759000 -4.840100 -0.769606 1.217079 -0.409109 -3.986077 0.652387 8.430223 3.104657 -0.986987 9.536164 1.219900 -0.311400 2.661800 -67.024102 -0.410856 32.792836 36.617201 -43.583330 -18.927221 0.651161 0.747886 8.029800 -7.125000 0.000000 0.000000 67.558376 -2.619504 32.731108 -31.212384 41.254936 -14.642712 2.156036 -0.263759 12.581420 7.125000 0.000000 0.000000 
